# xmcd
#
# Track frame offsets: 
#        182
#        13192
#        26712
#        44000
#        76225
#        90112
#        122547
#        151305
#        166210
#        202020
#        215255
#        228475
#        250185
#        286757
#        306415
#        326160
#
# Disc length: 4527 seconds
#
# Revision: 1
# Processed by: cddbd v1.4PL0 Copyright (c) Steve Scherf et al.
# Submitted via: ExactAudioCopy v0.90a11
#
DISCID=d211ad10
DTITLE=Big Joe Turner - Shake, Rattle and Roll
DYEAR=1900
DGENRE=
TTITLE0=Roll Em Hawk
TTITLE1=Corrine Corrina
TTITLE2=Piney Brown Blues
TTITLE3=The Night Time Is The Right Time
TTITLE4=Cherry Red
TTITLE5=Shoo Shoo Boogie Boo
TTITLE6=How Long Blues
TTITLE7=Honey Hush
TTITLE8=I Hear You Knocking
TTITLE9=Chain of Love
TTITLE10=Shake, Rattle and Roll
TTITLE11=Wee, Baby Blues
TTITLE12=The Things I Used To Do
TTITLE13=Nothin' For Nothin' Blues
TTITLE14=Squeeze Me
TTITLE15=T.V. Mama
EXTD=Tomato -1994
EXTT0=
EXTT1=
EXTT2=
EXTT3=
EXTT4=
EXTT5=
EXTT6=
EXTT7=
EXTT8=
EXTT9=
EXTT10=
EXTT11=
EXTT12=
EXTT13=
EXTT14=
EXTT15=
PLAYORDER=
